<svg width="200" height="200" viewBox="0 0 62 62" fill="none" xmlns="http://www.w3.org/2000/svg">
<path d="M31 0C13.8792 0 0 13.8792 0 31C0 48.1208 13.8792 62 31 62C48.1208 62 62 48.1208 62 31C62 13.8792 48.1208 0 31 0ZM47.2341 45.4632C47.2341 47.9084 45.2518 49.8906 42.8066 49.8906H19.1934C16.7481 49.8906 14.7659 47.9083 14.7659 45.4632V16.5368C14.7659 14.0916 16.7482 12.1094 19.1934 12.1094H31C33.4452 12.1094 35.4274 14.0917 35.4274 16.5368V19.4885C35.4274 21.9337 37.4097 23.9159 39.8549 23.9159H42.8066C45.2519 23.9159 47.2341 25.8982 47.2341 28.3433V45.4632Z" fill="#FFA96B" stroke="#FFA96B" stroke-width="1.5625"/>
<path d="M39.1158 30.7051H22.8817C21.6591 30.7051 20.668 31.6962 20.668 32.9188C20.668 34.1414 21.6591 35.1325 22.8817 35.1325H39.1158C40.3383 35.1325 41.3295 34.1414 41.3295 32.9188C41.3295 31.6962 40.3384 30.7051 39.1158 30.7051Z" fill="#FFA96B" stroke="#FFA96B" stroke-width="1.5625"/>
<path d="M39.1158 39.5605H22.8817C21.6591 39.5605 20.668 40.5517 20.668 41.7743C20.668 42.9968 21.6591 43.988 22.8817 43.988H39.1158C40.3383 43.988 41.3295 42.9968 41.3295 41.7743C41.3295 40.5517 40.3384 39.5605 39.1158 39.5605Z" fill="#FFA96B" stroke="#FFA96B" stroke-width="1.5625"/>
</svg>
