<svg width="118" height="36" viewBox="0 0 118 36" fill="none" xmlns="http://www.w3.org/2000/svg">
<path d="M1.25422 0.565721H2.80623C3.17338 0.565721 3.47377 0.699227 3.7074 0.966238C3.94104 1.19988 4.05786 1.48358 4.05786 1.81734V25.6983C4.05786 26.0655 3.94104 26.3825 3.7074 26.6495C3.47377 26.8832 3.17338 27 2.80623 27H1.25422C0.920454 27 0.620064 26.8832 0.353051 26.6495C0.119415 26.3825 0.00259704 26.0655 0.00259704 25.6983V1.81734C0.00259704 1.48358 0.119415 1.19988 0.353051 0.966238C0.620064 0.699227 0.920454 0.565721 1.25422 0.565721ZM27.5438 16.4363H27.5938L27.5438 25.448C27.5438 25.9486 27.3936 26.3492 27.0932 26.6495C26.8262 26.9166 26.4424 27.0501 25.9417 27.0501H25.1407C24.6734 27.0501 24.2896 26.9166 23.9892 26.6495C23.6888 26.3492 23.5386 25.9486 23.5386 25.448L23.5887 16.4363C23.5553 15.6686 23.4051 14.951 23.1381 14.2835C22.8377 13.4491 22.4038 12.7315 21.8364 12.1307C21.3024 11.4966 20.6682 11.0126 19.9339 10.6788C19.1663 10.3117 18.3318 10.1281 17.4307 10.1281C16.5629 10.1281 15.7618 10.3117 15.0275 10.6788C14.2599 11.0126 13.609 11.4966 13.075 12.1307C12.541 12.7315 12.1071 13.4491 11.7733 14.2835C11.5397 14.951 11.4062 15.6686 11.3728 16.4363V25.448C11.3728 25.9486 11.2226 26.3492 10.9222 26.6495C10.6552 26.9166 10.2714 27.0501 9.77073 27.0501H8.96969C8.50242 27.0501 8.11859 26.9166 7.8182 26.6495C7.55119 26.3492 7.41768 25.9486 7.41768 25.448L7.36762 16.4363C7.43437 15.1346 7.68469 13.9164 8.11859 12.7816C8.61924 11.4799 9.32015 10.3451 10.2213 9.37715C11.1559 8.37585 12.2406 7.5915 13.4755 7.0241C14.7105 6.45669 16.0455 6.17299 17.4807 6.17299C18.9159 6.17299 20.251 6.45669 21.4859 7.0241C22.7209 7.5915 23.7889 8.37585 24.6901 9.37715C25.5912 10.3451 26.2922 11.4799 26.7928 12.7816C27.2601 13.9164 27.5104 15.1346 27.5438 16.4363ZM47.2244 8.92656C48.0922 9.89448 48.7764 11.0293 49.277 12.331C49.8111 13.6327 50.0781 15.0178 50.0781 16.4864C50.0781 17.9549 49.8278 19.3401 49.3271 20.6418C48.7931 21.9434 48.0922 23.0782 47.2244 24.0462C46.3566 24.9807 45.3052 25.7317 44.0703 26.2991C42.8687 26.8665 41.567 27.1502 40.1652 27.1502C38.9637 27.1502 37.9123 27 37.0111 26.6996C36.11 26.3992 35.359 26.0321 34.7582 25.5982C34.5246 25.4647 34.3076 25.2978 34.1074 25.0975C34.074 25.5982 33.9071 25.9987 33.6067 26.2991C33.3397 26.5995 32.9559 26.7497 32.4552 26.7497H31.7043C31.1035 26.7497 30.6696 26.5494 30.4026 26.1489C30.2023 25.8819 30.1022 25.5147 30.1022 25.0475V2.11773C30.1022 1.68384 30.2023 1.33338 30.4026 1.06637C30.703 0.699226 31.1369 0.515654 31.7043 0.515654H32.5053C33.0727 0.515654 33.4899 0.699226 33.7569 1.06637C33.9906 1.33338 34.1074 1.68384 34.1074 2.11773V8.32578C34.4411 7.95864 34.825 7.60819 35.2589 7.27442C36.5939 6.27312 38.2294 5.77247 40.1652 5.77247C41.567 5.77247 42.8687 6.05617 44.0703 6.62358C45.3052 7.19098 46.3566 7.95864 47.2244 8.92656ZM45.5722 19.0897C45.906 18.2887 46.0729 17.4209 46.0729 16.4864C46.0729 15.5518 45.906 14.684 45.5722 13.883C45.2385 13.0486 44.7879 12.331 44.2205 11.7302C43.6865 11.1294 43.0523 10.6455 42.318 10.2783C41.5837 9.91117 40.8161 9.7276 40.015 9.7276C39.214 9.7276 38.463 9.91117 37.7621 10.2783C36.9944 10.6455 36.3436 11.1294 35.8096 11.7302C35.2422 12.331 34.7916 13.0486 34.4578 13.883C34.1241 14.684 33.9572 15.5518 33.9572 16.4864C33.9572 17.4209 34.1241 18.3054 34.4578 19.1398C34.7916 19.9408 35.2422 20.6418 35.8096 21.2425C36.3436 21.8433 36.9944 22.3273 37.7621 22.6944C38.463 23.0282 39.214 23.1951 40.015 23.1951C40.8161 23.1951 41.5837 23.0282 42.318 22.6944C43.0523 22.3273 43.6865 21.8433 44.2205 21.2425C44.7879 20.6418 45.2385 19.9242 45.5722 19.0897ZM72.6171 12.331C73.1177 13.6327 73.3681 15.0178 73.3681 16.4864C73.3681 17.9549 73.1177 19.3401 72.6171 20.6418C72.0831 21.9434 71.3488 23.0782 70.4142 24.0462C69.5131 25.0141 68.4116 25.7818 67.1099 26.3492C65.8416 26.9166 64.4732 27.2003 63.0046 27.2003C61.536 27.2003 60.1676 26.9166 58.8993 26.3492C57.631 25.7818 56.5295 25.0141 55.595 24.0462C54.6938 23.0782 53.9762 21.9434 53.4422 20.6418C52.9082 19.3401 52.6412 17.9549 52.6412 16.4864C52.6412 15.0178 52.9082 13.6494 53.4422 12.381C53.9762 11.0794 54.6938 9.94455 55.595 8.97663C56.5295 7.97533 57.631 7.20767 58.8993 6.67364C60.1676 6.10624 61.536 5.82254 63.0046 5.82254C64.4732 5.82254 65.8416 6.10624 67.1099 6.67364C68.4116 7.20767 69.5131 7.97533 70.4142 8.97663C71.3488 9.94455 72.0831 11.0627 72.6171 12.331ZM67.6106 21.2926C68.178 20.6918 68.6286 19.9742 68.9623 19.1398C69.2961 18.3054 69.463 17.4376 69.463 16.5364C69.463 15.6019 69.2961 14.7174 68.9623 13.883C68.6286 13.0486 68.178 12.331 67.6106 11.7302C67.0432 11.1294 66.359 10.6455 65.5579 10.2783C64.7903 9.91117 63.9392 9.7276 63.0046 9.7276C62.1034 9.7276 61.269 9.91117 60.5014 10.2783C59.7003 10.6455 59.0161 11.1294 58.4487 11.7302C57.8813 12.331 57.4307 13.0486 57.097 13.883C56.7966 14.684 56.6464 15.5518 56.6464 16.4864C56.6464 17.4209 56.7966 18.3054 57.097 19.1398C57.4307 19.9742 57.8813 20.6918 58.4487 21.2926C59.0495 21.8934 59.7337 22.3773 60.5014 22.7445C61.269 23.0782 62.1034 23.2451 63.0046 23.2451C63.9392 23.2451 64.7903 23.0782 65.5579 22.7445C66.359 22.3773 67.0432 21.8934 67.6106 21.2926ZM95.589 1.06637C95.7893 1.33338 95.8894 1.68384 95.8894 2.11773V25.0975C95.8894 25.5314 95.7893 25.8819 95.589 26.1489C95.322 26.5494 94.8881 26.7497 94.2874 26.7497H93.5364C93.0357 26.7497 92.6352 26.5995 92.3348 26.2991C92.0678 25.9987 91.9176 25.5982 91.8842 25.0975C91.7174 25.2644 91.5004 25.448 91.2334 25.6482C90.6326 26.0488 89.8816 26.3992 88.9805 26.6996C88.0793 27 87.0279 27.1502 85.8264 27.1502C84.4246 27.1502 83.1229 26.8665 81.9213 26.2991C80.7198 25.7651 79.6684 24.9974 78.7672 23.9961C77.8994 23.0616 77.1985 21.9434 76.6645 20.6418C76.1639 19.3401 75.9135 17.9549 75.9135 16.4864C75.9135 15.0178 76.1639 13.6327 76.6645 12.331C77.1985 11.0293 77.8994 9.89448 78.7672 8.92656C79.6684 7.95864 80.7198 7.20767 81.9213 6.67364C83.1229 6.10624 84.4246 5.82254 85.8264 5.82254C87.7622 5.82254 89.3977 6.3065 90.7328 7.27442C91.1333 7.60819 91.5171 7.95864 91.8842 8.32578V2.11773C91.8842 1.68384 92.0011 1.33338 92.2347 1.06637C92.5017 0.699226 92.9189 0.515654 93.4863 0.515654H94.2874C94.8881 0.515654 95.322 0.699226 95.589 1.06637ZM90.182 21.2425C90.7494 20.6418 91.2 19.9408 91.5338 19.1398C91.8676 18.3054 92.0344 17.4209 92.0344 16.4864C92.0344 15.5518 91.8676 14.684 91.5338 13.883C91.2 13.0486 90.7494 12.331 90.182 11.7302C89.648 11.1294 88.9972 10.6455 88.2295 10.2783C87.5286 9.91117 86.7776 9.7276 85.9766 9.7276C85.1755 9.7276 84.4079 9.91117 83.6736 10.2783C82.9393 10.6455 82.3052 11.1294 81.7711 11.7302C81.2037 12.331 80.7531 13.0486 80.4194 13.883C80.0856 14.684 79.9187 15.5518 79.9187 16.4864C79.9187 17.4209 80.0856 18.3054 80.4194 19.1398C80.7531 19.9408 81.2037 20.6418 81.7711 21.2425C82.3052 21.8433 82.9393 22.3273 83.6736 22.6944C84.4079 23.0282 85.1755 23.1951 85.9766 23.1951C86.7776 23.1951 87.5286 23.0282 88.2295 22.6944C88.9972 22.3273 89.648 21.8433 90.182 21.2425ZM117.327 6.42332C117.427 6.75708 117.41 7.10754 117.277 7.47468L107.414 30.855L105.812 34.6099C105.812 34.6432 105.812 34.6599 105.812 34.6599C105.645 34.9603 105.495 35.1773 105.361 35.3108C105.094 35.5444 104.727 35.6612 104.26 35.6612H103.159C102.758 35.6612 102.408 35.5277 102.107 35.2607C101.64 34.8602 101.557 34.3262 101.857 33.6586L105.662 24.5969L98.5527 7.52474C98.5527 7.49137 98.5527 7.45799 98.5527 7.42461C98.4192 7.09085 98.4192 6.75708 98.5527 6.42332C98.7195 5.82254 99.1534 5.52215 99.8543 5.52215H100.906C101.306 5.52215 101.64 5.60559 101.907 5.77247C102.107 5.93935 102.274 6.13961 102.408 6.37325C102.408 6.37325 102.408 6.38994 102.408 6.42332L107.965 19.6405L113.222 6.67364C113.489 5.90598 113.973 5.52215 114.674 5.52215H115.975C116.743 5.52215 117.193 5.82254 117.327 6.42332Z" fill="#FC6A00"/>
</svg>
