<svg width="31" height="31" viewBox="0 0 31 31" fill="none" xmlns="http://www.w3.org/2000/svg">
<path fill-rule="evenodd" clip-rule="evenodd" d="M21.7695 12.4521C21.7695 7.30683 17.5984 3.13574 12.4531 3.13574C7.30781 3.13574 3.13672 7.30683 3.13672 12.4521C3.13672 17.5974 7.30781 21.7685 12.4531 21.7685C14.5731 21.7685 16.529 21.0593 18.0943 19.8669L24.8243 26.5969C25.314 27.0867 26.1081 27.0867 26.5979 26.5969C27.0876 26.1071 27.0876 25.3131 26.5979 24.8233L19.8679 18.0933C21.0603 16.528 21.7695 14.5721 21.7695 12.4521ZM12.4531 5.644C16.2131 5.644 19.2612 8.69211 19.2612 12.4521C19.2612 14.3325 18.5006 16.0328 17.2672 17.2662C16.0338 18.4996 14.3335 19.2603 12.4531 19.2603C8.69309 19.2603 5.64498 16.2122 5.64498 12.4521C5.64498 8.69211 8.69309 5.644 12.4531 5.644Z" fill="white"/>
</svg>
